<svg width="30" height="30" viewBox="0 0 30 30" fill="none" xmlns="http://www.w3.org/2000/svg">
<path d="M8.82812 6.37549C7.13542 6.37549 5.84221 7.67235 4.82788 9.31006C3.81356 10.9478 3.01552 13.0683 2.45117 15.2854C1.88683 17.5025 1.5625 19.8081 1.5625 21.8149C1.5625 23.8218 1.79208 25.5499 2.8186 26.6904C3.29144 27.2158 3.91007 27.5561 4.54712 27.6243C5.18417 27.6925 5.78541 27.5136 6.31958 27.2373C7.38791 26.6847 8.30102 25.7299 9.15527 24.7129C10.0095 23.6959 10.7827 22.6035 11.3879 21.7869C11.6906 21.3786 11.9545 21.0371 12.1362 20.8335C12.1787 20.7859 12.1888 20.7806 12.2192 20.7505H14.7656H14.7705H17.3169C17.3473 20.7806 17.3576 20.7861 17.3999 20.8335C17.5816 21.0371 17.8456 21.3786 18.1482 21.7869C18.7535 22.6035 19.5266 23.6959 20.3809 24.7129C21.2351 25.7299 22.1482 26.6847 23.2166 27.2373C23.7507 27.5136 24.3507 27.6925 24.9878 27.6243C25.6248 27.5561 26.2435 27.2158 26.7163 26.6904C27.7429 25.5498 27.9728 23.8218 27.9724 21.8149C27.9721 19.8081 27.6471 17.5012 27.0825 15.2842C26.5179 13.0671 25.7199 10.9477 24.7058 9.31006C23.6918 7.67243 22.4001 6.37549 20.708 6.37549C18.9536 6.37549 17.768 6.96381 16.9141 7.46313C16.0602 7.96246 15.5902 8.29443 14.7705 8.29443H14.7656C13.946 8.29443 13.476 7.96246 12.6221 7.46313C11.7682 6.96381 10.5825 6.37549 8.82812 6.37549ZM8.82812 8.25049C10.1988 8.25049 10.8881 8.62174 11.6748 9.08179C12.4615 9.54183 13.3978 10.1694 14.7656 10.1694H14.7705C16.1384 10.1694 17.0734 9.54183 17.8601 9.08179C18.6468 8.62174 19.3374 8.25049 20.708 8.25049C21.3575 8.25049 22.251 8.90667 23.1116 10.2964C23.9721 11.6861 24.7364 13.6682 25.2661 15.748C25.7958 17.8279 26.0971 20.0132 26.0974 21.8149C26.0977 23.6167 25.7031 25.0137 25.3235 25.4355C25.0932 25.6914 24.9501 25.7418 24.7888 25.759C24.6275 25.7763 24.3926 25.7354 24.0771 25.5723C23.4463 25.2459 22.6028 24.443 21.8164 23.5068C21.03 22.5707 20.2797 21.5147 19.6545 20.6711C19.3419 20.2494 19.0639 19.8829 18.7988 19.5859C18.6663 19.4375 18.54 19.3049 18.3801 19.1794C18.2202 19.054 18.0322 18.8755 17.583 18.8755H14.7705H14.7656H11.9531C11.5039 18.8755 11.3159 19.054 11.156 19.1794C10.9961 19.3049 10.8698 19.4375 10.7373 19.5859C10.4722 19.8829 10.1942 20.2494 9.88159 20.6711C9.25638 21.5147 8.5061 22.5707 7.71973 23.5068C6.93335 24.443 6.08865 25.2459 5.45776 25.5723C5.14232 25.7354 4.9086 25.7763 4.74731 25.759C4.58603 25.7418 4.44294 25.6914 4.21265 25.4355C3.83292 25.0136 3.4375 23.6167 3.4375 21.8149C3.4375 20.0132 3.73817 17.8266 4.26758 15.7468C4.79698 13.667 5.56144 11.686 6.42212 10.2964C7.28279 8.90676 8.17708 8.25049 8.82812 8.25049ZM20.0781 11.3755C19.8295 11.3755 19.591 11.4743 19.4152 11.6501C19.2394 11.8259 19.1406 12.0643 19.1406 12.313C19.1406 12.5616 19.2394 12.8001 19.4152 12.9759C19.591 13.1517 19.8295 13.2505 20.0781 13.2505C20.3268 13.2505 20.5652 13.1517 20.741 12.9759C20.9169 12.8001 21.0156 12.5616 21.0156 12.313C21.0156 12.0643 20.9169 11.8259 20.741 11.6501C20.5652 11.4743 20.3268 11.3755 20.0781 11.3755ZM9.43848 11.9871C9.19005 11.9909 8.95332 12.0933 8.78028 12.2716C8.60725 12.4499 8.51206 12.6896 8.51562 12.938V13.8755H7.57812C7.4539 13.8737 7.33055 13.8967 7.21527 13.943C7.09999 13.9893 6.99506 14.0581 6.90659 14.1453C6.81812 14.2326 6.74787 14.3365 6.69992 14.4511C6.65197 14.5657 6.62727 14.6887 6.62727 14.813C6.62727 14.9372 6.65197 15.0602 6.69992 15.1749C6.74787 15.2895 6.81812 15.3934 6.90659 15.4806C6.99506 15.5679 7.09999 15.6366 7.21527 15.683C7.33055 15.7293 7.4539 15.7522 7.57812 15.7505H8.51562V16.688C8.51387 16.8122 8.53682 16.9356 8.58314 17.0508C8.62947 17.1661 8.69825 17.2711 8.78547 17.3595C8.8727 17.448 8.97665 17.5182 9.09126 17.5662C9.20588 17.6141 9.32888 17.6388 9.45312 17.6388C9.57737 17.6388 9.70037 17.6141 9.81499 17.5662C9.9296 17.5182 10.0335 17.448 10.1208 17.3595C10.208 17.2711 10.2768 17.1661 10.3231 17.0508C10.3694 16.9356 10.3924 16.8122 10.3906 16.688V15.7505H11.3281C11.4524 15.7522 11.5757 15.7293 11.691 15.683C11.8063 15.6366 11.9112 15.5679 11.9997 15.4806C12.0881 15.3934 12.1584 15.2895 12.2063 15.1749C12.2543 15.0602 12.279 14.9372 12.279 14.813C12.279 14.6887 12.2543 14.5657 12.2063 14.4511C12.1584 14.3365 12.0881 14.2326 11.9997 14.1453C11.9112 14.0581 11.8063 13.9893 11.691 13.943C11.5757 13.8967 11.4524 13.8737 11.3281 13.8755H10.3906V12.938C10.3924 12.8125 10.369 12.6879 10.3218 12.5717C10.2746 12.4554 10.2045 12.3498 10.1157 12.2611C10.0269 12.1725 9.9212 12.1025 9.80487 12.0554C9.68855 12.0083 9.56395 11.9851 9.43848 11.9871ZM17.5781 13.8755C17.3295 13.8755 17.091 13.9743 16.9152 14.1501C16.7394 14.3259 16.6406 14.5643 16.6406 14.813C16.6406 15.0616 16.7394 15.3001 16.9152 15.4759C17.091 15.6517 17.3295 15.7505 17.5781 15.7505C17.8268 15.7505 18.0652 15.6517 18.241 15.4759C18.4169 15.3001 18.5156 15.0616 18.5156 14.813C18.5156 14.5643 18.4169 14.3259 18.241 14.1501C18.0652 13.9743 17.8268 13.8755 17.5781 13.8755ZM22.5781 13.8755C22.3295 13.8755 22.091 13.9743 21.9152 14.1501C21.7394 14.3259 21.6406 14.5643 21.6406 14.813C21.6406 15.0616 21.7394 15.3001 21.9152 15.4759C22.091 15.6517 22.3295 15.7505 22.5781 15.7505C22.8268 15.7505 23.0652 15.6517 23.241 15.4759C23.4169 15.3001 23.5156 15.0616 23.5156 14.813C23.5156 14.5643 23.4169 14.3259 23.241 14.1501C23.0652 13.9743 22.8268 13.8755 22.5781 13.8755ZM20.0781 16.3755C19.8295 16.3755 19.591 16.4743 19.4152 16.6501C19.2394 16.8259 19.1406 17.0643 19.1406 17.313C19.1406 17.5616 19.2394 17.8001 19.4152 17.9759C19.591 18.1517 19.8295 18.2505 20.0781 18.2505C20.3268 18.2505 20.5652 18.1517 20.741 17.9759C20.9169 17.8001 21.0156 17.5616 21.0156 17.313C21.0156 17.0643 20.9169 16.8259 20.741 16.6501C20.5652 16.4743 20.3268 16.3755 20.0781 16.3755Z" fill="white"/>
</svg>
