<svg width="30" height="30" viewBox="0 0 30 30" fill="none" xmlns="http://www.w3.org/2000/svg">
<path d="M25.7656 5.37549H3.76562C2.66062 5.37549 1.76562 6.27049 1.76562 7.37549V25.3755C1.76562 26.4805 2.66062 27.3755 3.76562 27.3755H25.7656C26.8706 27.3755 27.7656 26.4805 27.7656 25.3755V7.37549C27.7656 6.27049 26.8706 5.37549 25.7656 5.37549ZM25.7656 10.3755H22.7656V7.37549H25.7656V10.3755ZM25.7656 15.3755H22.7656V12.3755H25.7656V15.3755ZM21.2656 17.3755H8.26562C7.98962 17.3755 7.76562 17.1515 7.76562 16.8755C7.76562 16.5995 7.98962 16.3755 8.26562 16.3755H21.2656C21.5416 16.3755 21.7656 16.5995 21.7656 16.8755C21.7656 17.1515 21.5416 17.3755 21.2656 17.3755ZM25.7656 20.3755H22.7656V17.3755H25.7656V20.3755ZM25.7656 25.3755H22.7656V22.3755H25.7656V25.3755ZM6.76562 10.3755H3.76562V7.37549H6.76562V10.3755ZM6.76562 15.3755H3.76562V12.3755H6.76562V15.3755ZM6.76562 20.3755H3.76562V17.3755H6.76562V20.3755ZM6.76562 25.3755H3.76562V22.3755H6.76562V25.3755Z" fill="white"/>
</svg>
