<svg width="30" height="30" viewBox="0 0 30 30" fill="none" xmlns="http://www.w3.org/2000/svg">
<g clip-path="url(#clip0_12_535)">
<path d="M12.9988 2.49329L12.3498 6.60386C11.3627 6.84725 10.4207 7.21234 9.57333 7.72165L6.1839 5.30579L3.73198 7.75771L6.11179 11.1471C5.59797 11.999 5.20584 12.932 4.95794 13.9236L0.883423 14.6087V18.0702L4.95794 18.7914C5.20584 19.7829 5.59797 20.7159 6.11179 21.5678L3.69592 24.9572L6.14785 27.4092L9.53727 25.0293C10.3846 25.5387 11.3266 25.9037 12.3137 26.1471L12.9988 30.2577H16.4603L17.2176 26.1471C18.2001 25.8992 19.1151 25.5071 19.9579 24.9933L23.3834 27.4092L25.8353 24.9572L23.3834 21.5678C23.8882 20.725 24.2939 19.8055 24.5373 18.8274L28.6478 18.0702V14.6087L24.5373 13.9236C24.2939 12.9455 23.8882 12.026 23.3834 11.1832L25.7993 7.75771L23.3474 5.30579L19.9579 7.75771C19.1151 7.24839 18.1686 6.85176 17.1815 6.60386L16.4603 2.49329H12.9988ZM14.7656 8.83944C18.9258 8.83944 22.3017 12.2153 22.3017 16.3755C22.3017 20.5357 18.9258 23.9116 14.7656 23.9116C10.6055 23.9116 7.22958 20.5311 7.22958 16.3755C7.22958 12.2198 10.6055 8.83944 14.7656 8.83944ZM14.7656 10.6784C11.6286 10.6784 9.06852 13.2385 9.06852 16.3755C9.06852 19.5125 11.6286 22.0726 14.7656 22.0726C17.9027 22.0726 20.4627 19.5125 20.4627 16.3755C20.4627 13.2385 17.9027 10.6784 14.7656 10.6784ZM14.7296 13.9957C16.0502 13.9957 17.1454 15.0504 17.1454 16.3755C17.1454 17.6961 16.0502 18.7553 14.7296 18.7553C13.409 18.7553 12.3498 17.6961 12.3498 16.3755C12.3498 15.0504 13.409 13.9957 14.7296 13.9957Z" fill="white"/>
</g>
<defs>
<clipPath id="clip0_12_535">
<rect width="30" height="30" fill="white"/>
</clipPath>
</defs>
</svg>
